<svg id="svg" version="1.1" xmlns="http://www.w3.org/2000/svg" xmlns:xlink="http://www.w3.org/1999/xlink" width="400" height="400" viewBox="0, 0, 400,400"><g id="svgg"><path id="path0" d="M141.200 52.400 C 141.200 52.622,140.132 52.800,138.795 52.800 C 137.472 52.800,136.032 52.980,135.595 53.200 C 135.158 53.420,134.442 53.780,134.005 54.000 C 133.568 54.220,132.938 54.400,132.605 54.400 C 132.272 54.400,132.000 54.580,132.000 54.800 C 132.000 55.020,131.730 55.200,131.400 55.200 C 131.070 55.200,130.800 55.380,130.800 55.600 C 130.800 55.820,130.515 56.000,130.166 56.000 C 129.474 56.000,124.800 60.547,124.800 61.219 C 124.800 61.447,124.440 62.020,124.000 62.492 C 123.560 62.964,123.200 63.666,123.200 64.052 C 123.200 64.437,123.020 64.864,122.800 65.000 C 122.580 65.136,122.400 65.597,122.400 66.024 C 122.400 66.451,122.220 66.800,122.000 66.800 C 121.778 66.800,121.600 67.867,121.600 69.200 C 121.600 70.533,121.422 71.600,121.200 71.600 C 120.938 71.600,120.800 78.859,120.800 92.576 C 120.800 106.129,120.942 113.640,121.200 113.800 C 121.420 113.936,121.600 115.027,121.600 116.224 C 121.600 117.421,121.780 118.400,122.000 118.400 C 122.220 118.400,122.400 118.940,122.400 119.600 C 122.400 120.260,122.580 120.800,122.800 120.800 C 123.020 120.800,123.200 121.160,123.200 121.600 C 123.200 122.040,123.336 122.400,123.502 122.400 C 123.669 122.400,124.044 122.941,124.337 123.602 C 125.210 125.575,130.679 130.775,131.900 130.793 C 132.175 130.797,132.400 130.980,132.400 131.200 C 132.400 131.420,132.940 131.600,133.600 131.600 C 134.260 131.600,134.800 131.780,134.800 132.000 C 134.800 132.220,135.340 132.400,136.000 132.400 C 136.660 132.400,137.200 132.580,137.200 132.800 C 137.200 133.063,146.467 133.200,164.200 133.200 L 191.200 133.200 191.180 151.500 L 191.160 169.800 187.942 172.800 C 186.172 174.450,182.535 178.012,179.862 180.714 C 173.808 186.834,169.795 190.829,163.399 197.104 C 160.649 199.801,158.400 202.186,158.400 202.404 C 158.400 202.663,145.428 202.800,121.024 202.800 C 96.537 202.800,83.562 202.938,83.400 203.200 C 83.264 203.420,82.443 203.600,81.576 203.600 C 80.709 203.600,80.000 203.780,80.000 204.000 C 80.000 204.220,79.460 204.400,78.800 204.400 C 78.140 204.400,77.600 204.536,77.600 204.702 C 77.600 204.869,77.024 205.260,76.319 205.572 C 75.614 205.884,74.440 206.693,73.710 207.369 C 70.407 210.431,69.200 211.736,69.200 212.248 C 69.200 212.552,69.020 212.800,68.800 212.800 C 68.580 212.800,68.400 213.160,68.400 213.600 C 68.400 214.040,68.220 214.400,68.000 214.400 C 67.780 214.400,67.600 214.749,67.600 215.176 C 67.600 215.603,67.420 216.064,67.200 216.200 C 66.980 216.336,66.800 217.146,66.800 218.000 C 66.800 218.854,66.620 219.664,66.400 219.800 C 66.141 219.960,66.000 228.271,66.000 243.424 L 66.000 266.800 40.600 266.800 C 23.933 266.800,15.200 266.938,15.200 267.200 C 15.200 267.420,14.660 267.600,14.000 267.600 C 13.340 267.600,12.800 267.780,12.800 268.000 C 12.800 268.220,12.350 268.400,11.800 268.400 C 11.250 268.400,10.800 268.580,10.800 268.800 C 10.800 269.020,10.557 269.200,10.259 269.200 C 9.962 269.200,9.154 269.740,8.463 270.400 C 7.772 271.060,7.020 271.600,6.790 271.600 C 6.206 271.600,3.914 273.986,3.232 275.303 C 2.920 275.906,2.515 276.400,2.332 276.400 C 2.150 276.400,2.000 276.670,2.000 277.000 C 2.000 277.330,1.820 277.600,1.600 277.600 C 1.380 277.600,1.200 277.945,1.200 278.367 C 1.200 278.788,0.975 279.208,0.700 279.300 C 0.306 279.431,0.200 285.329,0.200 307.000 C 0.200 328.671,0.306 334.569,0.700 334.700 C 0.975 334.792,1.200 335.212,1.200 335.633 C 1.200 336.055,1.380 336.400,1.600 336.400 C 1.820 336.400,2.000 336.760,2.000 337.200 C 2.000 337.640,2.180 338.000,2.400 338.000 C 2.620 338.000,2.800 338.178,2.800 338.395 C 2.800 338.810,3.830 340.179,4.722 340.949 C 5.009 341.197,5.826 341.953,6.538 342.629 C 7.249 343.305,8.410 344.114,9.116 344.427 C 9.822 344.740,10.400 345.131,10.400 345.298 C 10.400 345.464,10.760 345.600,11.200 345.600 C 11.640 345.600,12.000 345.780,12.000 346.000 C 12.000 346.220,12.439 346.400,12.976 346.400 C 13.513 346.400,14.064 346.580,14.200 346.800 C 14.336 347.020,15.517 347.200,16.824 347.200 C 18.141 347.200,19.200 347.378,19.200 347.600 C 19.200 347.856,22.925 348.000,29.576 348.000 C 36.063 348.000,40.045 347.850,40.200 347.600 C 40.336 347.380,41.067 347.200,41.824 347.200 C 42.581 347.200,43.200 347.020,43.200 346.800 C 43.200 346.580,43.476 346.400,43.813 346.400 C 44.597 346.400,47.200 343.815,47.200 343.037 C 47.200 342.713,47.380 342.336,47.600 342.200 C 48.121 341.878,48.121 336.522,47.600 336.200 C 47.380 336.064,47.200 335.639,47.200 335.255 C 47.200 334.345,44.681 331.600,43.846 331.600 C 43.491 331.600,43.200 331.420,43.200 331.200 C 43.200 330.943,39.141 330.800,31.824 330.800 C 24.671 330.800,20.355 330.651,20.200 330.400 C 20.064 330.180,19.685 330.000,19.358 330.000 C 18.486 330.000,16.800 328.167,16.800 327.218 C 16.800 326.768,16.620 326.400,16.400 326.400 C 16.139 326.400,16.000 319.808,16.000 307.424 C 16.000 295.204,16.142 288.359,16.400 288.200 C 16.620 288.064,16.800 287.501,16.800 286.948 C 16.800 285.898,17.237 285.338,18.710 284.500 C 19.997 283.768,128.403 283.768,129.690 284.500 C 131.102 285.303,131.600 285.889,131.600 286.748 C 131.600 287.191,131.780 287.664,132.000 287.800 C 132.258 287.959,132.400 294.937,132.400 307.424 C 132.400 320.075,132.261 326.800,132.000 326.800 C 131.780 326.800,131.600 327.078,131.600 327.418 C 131.600 328.218,129.818 330.000,129.018 330.000 C 128.678 330.000,128.400 330.180,128.400 330.400 C 128.400 330.658,124.133 330.800,116.400 330.800 C 108.667 330.800,104.400 330.942,104.400 331.200 C 104.400 331.420,104.122 331.600,103.782 331.600 C 102.982 331.600,101.200 333.382,101.200 334.182 C 101.200 334.522,101.020 334.800,100.800 334.800 C 100.580 334.800,100.400 335.160,100.400 335.600 C 100.400 336.040,100.220 336.400,100.000 336.400 C 99.774 336.400,99.600 337.533,99.600 339.000 C 99.600 340.467,99.774 341.600,100.000 341.600 C 100.220 341.600,100.400 342.015,100.400 342.522 C 100.400 343.604,102.818 346.400,103.754 346.400 C 104.109 346.400,104.400 346.580,104.400 346.800 C 104.400 347.020,105.120 347.200,106.000 347.200 C 106.880 347.200,107.600 347.380,107.600 347.600 C 107.600 347.857,111.467 348.000,118.400 348.000 C 125.333 348.000,129.200 347.857,129.200 347.600 C 129.200 347.378,130.259 347.200,131.576 347.200 C 132.883 347.200,134.064 347.020,134.200 346.800 C 134.336 346.580,134.887 346.400,135.424 346.400 C 135.961 346.400,136.400 346.220,136.400 346.000 C 136.400 345.780,136.634 345.600,136.920 345.600 C 137.656 345.600,139.593 344.659,139.597 344.300 C 139.599 344.135,139.786 344.000,140.013 344.000 C 140.390 344.000,141.337 343.185,144.500 340.141 C 145.105 339.559,145.600 338.854,145.600 338.575 C 145.600 338.295,145.735 338.007,145.900 337.933 C 146.373 337.723,148.000 334.398,148.000 333.642 C 148.000 333.267,148.163 332.789,148.363 332.580 C 149.316 331.582,150.142 286.400,149.207 286.400 C 148.976 286.400,148.800 285.361,148.800 284.000 C 148.800 282.667,148.622 281.600,148.400 281.600 C 148.180 281.600,148.000 281.060,148.000 280.400 C 148.000 279.740,147.820 279.200,147.600 279.200 C 147.380 279.200,147.200 278.840,147.200 278.400 C 147.200 277.960,147.020 277.600,146.800 277.600 C 146.580 277.600,146.400 277.358,146.400 277.062 C 146.400 276.766,146.040 276.198,145.600 275.800 C 145.160 275.402,144.800 274.919,144.800 274.727 C 144.800 274.237,141.309 270.800,140.811 270.800 C 140.585 270.800,140.400 270.620,140.400 270.400 C 140.400 270.180,140.130 270.000,139.800 270.000 C 139.470 270.000,139.199 269.865,139.197 269.700 C 139.193 269.294,137.214 268.400,136.320 268.400 C 135.924 268.400,135.600 268.220,135.600 268.000 C 135.600 267.780,135.060 267.600,134.400 267.600 C 133.740 267.600,133.200 267.420,133.200 267.200 C 133.200 266.938,124.600 266.800,108.200 266.800 L 83.200 266.800 83.200 244.728 L 83.200 222.657 84.650 221.328 L 86.101 220.000 121.628 220.000 L 157.156 220.000 175.678 238.500 C 197.185 259.981,195.514 258.600,200.000 258.599 C 204.479 258.598,202.942 259.871,224.497 238.306 L 242.795 220.000 278.024 220.000 C 315.452 220.000,314.138 219.932,315.900 221.963 L 316.799 223.000 316.800 244.900 L 316.800 266.800 291.800 266.800 C 275.400 266.800,266.800 266.938,266.800 267.200 C 266.800 267.420,266.260 267.600,265.600 267.600 C 264.940 267.600,264.400 267.780,264.400 268.000 C 264.400 268.220,264.076 268.400,263.680 268.400 C 262.786 268.400,260.807 269.294,260.803 269.700 C 260.801 269.865,260.570 270.000,260.288 270.000 C 260.007 270.000,259.517 270.360,259.200 270.800 C 258.883 271.240,258.477 271.600,258.298 271.600 C 257.860 271.600,255.200 274.282,255.200 274.725 C 255.200 274.918,254.840 275.402,254.400 275.800 C 253.960 276.198,253.600 276.766,253.600 277.062 C 253.600 277.358,253.420 277.600,253.200 277.600 C 252.980 277.600,252.800 277.960,252.800 278.400 C 252.800 278.840,252.620 279.200,252.400 279.200 C 252.180 279.200,252.000 279.740,252.000 280.400 C 252.000 281.060,251.820 281.600,251.600 281.600 C 251.378 281.600,251.200 282.667,251.200 284.000 C 251.200 285.361,251.024 286.400,250.793 286.400 C 250.344 286.400,250.509 326.122,250.975 330.000 C 251.219 332.040,251.545 333.122,252.447 334.895 C 252.641 335.277,252.800 335.862,252.800 336.195 C 252.800 336.528,252.980 336.800,253.200 336.800 C 253.420 336.800,253.600 337.070,253.600 337.400 C 253.600 337.730,253.780 338.000,254.000 338.000 C 254.220 338.000,254.400 338.244,254.400 338.541 C 254.400 338.839,254.895 339.559,255.500 340.141 C 258.628 343.152,259.607 344.000,259.953 344.000 C 260.162 344.000,260.393 344.135,260.467 344.300 C 260.540 344.465,261.500 345.025,262.600 345.544 C 263.700 346.063,264.913 346.648,265.295 346.844 C 265.677 347.040,267.072 347.200,268.395 347.200 C 269.732 347.200,270.800 347.378,270.800 347.600 C 270.800 347.865,289.400 348.000,325.800 348.000 C 362.200 348.000,380.800 347.865,380.800 347.600 C 380.800 347.378,381.859 347.200,383.176 347.200 C 384.483 347.200,385.664 347.020,385.800 346.800 C 385.936 346.580,386.487 346.400,387.024 346.400 C 387.561 346.400,388.000 346.220,388.000 346.000 C 388.000 345.780,388.360 345.600,388.800 345.600 C 389.240 345.600,389.600 345.420,389.600 345.200 C 389.600 344.980,389.960 344.800,390.400 344.800 C 390.840 344.800,391.200 344.620,391.200 344.400 C 391.200 344.180,391.386 344.000,391.613 344.000 C 391.841 344.000,392.641 343.415,393.392 342.700 C 394.142 341.985,394.991 341.197,395.278 340.949 C 396.170 340.179,397.200 338.810,397.200 338.395 C 397.200 338.178,397.380 338.000,397.600 338.000 C 397.820 338.000,398.000 337.640,398.000 337.200 C 398.000 336.760,398.180 336.400,398.400 336.400 C 398.620 336.400,398.800 336.055,398.800 335.633 C 398.800 335.212,399.025 334.792,399.300 334.700 C 400.031 334.456,400.031 280.271,399.300 279.540 C 399.025 279.265,398.800 278.716,398.800 278.320 C 398.800 277.924,398.620 277.600,398.400 277.600 C 398.180 277.600,398.000 277.330,398.000 277.000 C 398.000 276.670,397.850 276.400,397.668 276.400 C 397.485 276.400,397.080 275.906,396.768 275.303 C 396.146 274.102,393.813 271.601,393.313 271.599 C 393.141 271.599,392.370 271.059,391.600 270.400 C 390.830 269.741,389.975 269.201,389.700 269.201 C 389.425 269.200,389.200 269.020,389.200 268.800 C 389.200 268.580,388.750 268.400,388.200 268.400 C 387.650 268.400,387.200 268.220,387.200 268.000 C 387.200 267.780,386.660 267.600,386.000 267.600 C 385.340 267.600,384.800 267.420,384.800 267.200 C 384.800 266.938,376.067 266.800,359.400 266.800 L 334.000 266.800 334.000 243.624 C 334.000 228.604,333.859 220.360,333.600 220.200 C 333.380 220.064,333.200 219.243,333.200 218.376 C 333.200 217.509,333.020 216.800,332.800 216.800 C 332.580 216.800,332.400 216.260,332.400 215.600 C 332.400 214.940,332.220 214.400,332.000 214.400 C 331.780 214.400,331.600 214.040,331.600 213.600 C 331.600 213.160,331.420 212.800,331.200 212.800 C 330.980 212.800,330.800 212.530,330.800 212.200 C 330.800 211.870,330.620 211.600,330.400 211.600 C 330.180 211.600,329.995 211.375,329.988 211.100 C 329.981 210.825,329.429 210.150,328.760 209.600 C 328.092 209.050,326.965 208.047,326.256 207.371 C 325.548 206.695,324.390 205.886,323.684 205.573 C 322.978 205.260,322.400 204.869,322.400 204.702 C 322.400 204.536,321.860 204.400,321.200 204.400 C 320.540 204.400,320.000 204.220,320.000 204.000 C 320.000 203.780,319.201 203.600,318.224 203.600 C 317.247 203.600,316.336 203.420,316.200 203.200 C 316.038 202.938,303.129 202.800,278.776 202.800 C 254.504 202.800,241.600 202.663,241.600 202.404 C 241.600 202.186,239.328 199.778,236.551 197.053 C 231.336 191.937,228.600 189.213,220.173 180.749 C 217.463 178.027,213.705 174.320,211.823 172.512 L 208.400 169.224 208.400 151.212 L 208.400 133.200 235.600 133.200 C 253.467 133.200,262.800 133.063,262.800 132.800 C 262.800 132.580,263.340 132.400,264.000 132.400 C 264.660 132.400,265.200 132.220,265.200 132.000 C 265.200 131.780,265.605 131.596,266.100 131.591 C 266.595 131.586,267.450 131.230,268.000 130.800 C 268.550 130.370,269.185 130.014,269.412 130.009 C 269.638 130.004,270.083 129.640,270.400 129.200 C 270.717 128.760,271.151 128.400,271.364 128.400 C 271.905 128.400,275.196 124.709,275.198 124.100 C 275.199 123.825,275.380 123.600,275.600 123.600 C 275.820 123.600,276.000 123.330,276.000 123.000 C 276.000 122.670,276.180 122.400,276.400 122.400 C 276.620 122.400,276.800 122.040,276.800 121.600 C 276.800 121.160,276.980 120.800,277.200 120.800 C 277.420 120.800,277.600 120.260,277.600 119.600 C 277.600 118.940,277.780 118.400,278.000 118.400 C 278.262 118.400,278.400 109.667,278.400 93.000 C 278.400 76.333,278.262 67.600,278.000 67.600 C 277.780 67.600,277.600 67.060,277.600 66.400 C 277.600 65.740,277.420 65.200,277.200 65.200 C 276.980 65.200,276.800 64.840,276.800 64.400 C 276.800 63.960,276.620 63.600,276.400 63.600 C 276.180 63.600,276.000 63.240,276.000 62.800 C 276.000 62.360,275.820 62.000,275.600 62.000 C 275.380 62.000,275.200 61.720,275.200 61.378 C 275.200 60.600,270.562 56.000,269.777 56.000 C 269.460 56.000,269.199 55.865,269.197 55.700 C 269.193 55.341,267.256 54.400,266.520 54.400 C 266.234 54.400,266.000 54.220,266.000 54.000 C 266.000 53.780,265.651 53.600,265.224 53.600 C 264.797 53.600,264.336 53.420,264.200 53.200 C 264.064 52.980,262.793 52.800,261.376 52.800 C 259.925 52.800,258.800 52.625,258.800 52.400 C 258.800 52.135,238.933 52.000,200.000 52.000 C 161.067 52.000,141.200 52.135,141.200 52.400 M258.674 69.797 C 261.577 71.245,261.400 69.763,261.400 92.581 C 261.400 113.878,261.303 115.200,259.732 115.200 C 259.440 115.200,259.200 115.380,259.200 115.600 C 259.200 115.865,239.200 116.000,200.000 116.000 C 160.800 116.000,140.800 115.865,140.800 115.600 C 140.800 115.380,140.607 115.200,140.371 115.200 C 139.743 115.200,138.800 114.151,138.800 113.452 C 138.800 113.119,138.620 112.736,138.400 112.600 C 137.766 112.208,137.862 73.836,138.500 72.695 C 139.308 71.249,140.499 70.000,141.070 70.000 C 141.361 70.000,141.600 69.820,141.600 69.600 C 141.600 68.872,257.210 69.067,258.674 69.797 M203.021 188.500 C 204.697 190.095,206.818 192.184,207.734 193.142 C 210.959 196.514,221.514 207.024,223.744 209.082 C 224.985 210.228,226.000 211.342,226.000 211.558 C 226.000 211.774,220.150 217.805,213.000 224.960 L 200.000 237.970 187.000 224.960 C 179.850 217.805,174.000 211.797,174.000 211.609 C 174.000 211.421,175.197 210.127,176.661 208.733 C 178.125 207.340,182.072 203.410,185.432 200.000 C 188.793 196.590,192.480 192.900,193.626 191.800 C 194.771 190.700,196.629 188.868,197.754 187.730 C 198.879 186.591,199.839 185.646,199.887 185.630 C 199.934 185.613,201.345 186.905,203.021 188.500 M381.290 284.500 C 382.763 285.338,383.200 285.898,383.200 286.948 C 383.200 287.501,383.380 288.064,383.600 288.200 C 383.858 288.359,384.000 295.204,384.000 307.424 C 384.000 319.808,383.861 326.400,383.600 326.400 C 383.380 326.400,383.200 326.768,383.200 327.218 C 383.200 328.167,381.514 330.000,380.642 330.000 C 380.315 330.000,379.936 330.180,379.800 330.400 C 379.637 330.663,361.129 330.800,325.576 330.800 C 289.859 330.800,271.600 330.665,271.600 330.400 C 271.600 330.180,271.322 330.000,270.982 330.000 C 270.182 330.000,268.400 328.218,268.400 327.418 C 268.400 327.078,268.220 326.800,268.000 326.800 C 267.739 326.800,267.600 320.075,267.600 307.424 C 267.600 294.937,267.742 287.959,268.000 287.800 C 268.220 287.664,268.400 287.191,268.400 286.748 C 268.400 285.916,268.866 285.345,270.217 284.524 C 271.386 283.812,380.040 283.789,381.290 284.500 M70.800 331.200 C 70.800 331.420,70.524 331.600,70.187 331.600 C 69.391 331.600,66.800 334.191,66.800 334.987 C 66.800 335.324,66.620 335.600,66.400 335.600 C 65.625 335.600,65.910 342.552,66.720 343.425 C 67.116 343.851,67.561 344.515,67.708 344.900 C 67.855 345.285,68.211 345.600,68.499 345.600 C 68.787 345.600,69.283 345.960,69.600 346.400 C 69.976 346.921,70.635 347.200,71.494 347.200 C 72.218 347.200,73.164 347.420,73.595 347.690 C 74.215 348.077,74.483 348.077,74.870 347.690 C 75.140 347.420,76.004 347.200,76.792 347.200 C 77.765 347.200,78.408 346.944,78.800 346.400 C 79.117 345.960,79.697 345.600,80.088 345.600 C 80.504 345.600,80.800 345.304,80.800 344.888 C 80.800 344.497,81.160 343.917,81.600 343.600 C 82.305 343.092,82.400 342.565,82.400 339.167 L 82.400 335.311 80.672 333.456 C 79.722 332.435,78.642 331.600,78.272 331.600 C 77.902 331.600,77.600 331.420,77.600 331.200 C 77.600 330.965,76.200 330.800,74.200 330.800 C 72.200 330.800,70.800 330.965,70.800 331.200 " stroke="none" fill="#040404" fill-rule="evenodd"></path><path id="path1" d="" stroke="none" fill="#080404" fill-rule="evenodd"></path><path id="path2" d="" stroke="none" fill="#080404" fill-rule="evenodd"></path><path id="path3" d="" stroke="none" fill="#080404" fill-rule="evenodd"></path><path id="path4" d="" stroke="none" fill="#080404" fill-rule="evenodd"></path></g></svg>