<svg id="svg" version="1.1" xmlns="http://www.w3.org/2000/svg" xmlns:xlink="http://www.w3.org/1999/xlink" width="400" height="400" viewBox="0, 0, 400,400"><g id="svgg"><path id="path0" d="M85.033 22.204 C 83.720 22.982,75.732 29.803,71.369 33.870 C 70.703 34.492,68.637 36.350,66.779 38.000 C 61.665 42.540,60.452 43.632,58.235 45.688 C 55.605 48.129,55.365 48.090,55.060 45.166 C 54.287 37.775,45.873 35.624,42.530 41.963 C 41.643 43.644,41.599 44.116,41.589 52.163 L 41.578 60.600 35.944 65.600 C 27.577 73.026,26.287 75.750,29.279 79.676 C 32.590 84.021,36.301 83.522,42.472 77.905 C 46.118 74.586,47.794 73.200,48.163 73.200 C 48.293 73.200,48.400 90.542,48.400 111.738 C 48.400 148.565,48.432 150.305,49.131 150.938 C 49.802 151.545,53.193 151.600,89.702 151.600 L 129.542 151.600 130.371 150.546 C 131.197 149.497,131.200 149.332,131.200 111.346 C 131.200 90.366,131.315 73.200,131.455 73.200 C 131.595 73.200,133.047 74.415,134.681 75.900 C 141.947 82.501,143.781 83.451,146.887 82.216 C 152.984 79.794,153.182 74.071,147.344 69.000 C 145.048 67.006,137.823 60.559,134.392 57.442 C 133.398 56.539,131.058 54.452,129.192 52.806 C 127.326 51.159,125.710 49.718,125.600 49.604 C 125.490 49.490,123.780 47.957,121.800 46.198 C 119.820 44.439,118.110 42.910,118.000 42.800 C 117.843 42.643,113.953 39.150,109.759 35.400 C 109.513 35.180,108.610 34.370,107.752 33.600 C 99.685 26.356,95.541 22.852,94.146 22.096 C 91.800 20.826,87.269 20.879,85.033 22.204 M225.619 34.922 C 223.780 35.508,221.389 37.957,221.063 39.588 C 220.918 40.309,220.800 58.067,220.800 79.050 L 220.800 117.200 234.600 117.200 L 248.400 117.200 248.400 79.377 C 248.400 34.886,248.637 37.077,243.626 35.173 C 241.275 34.280,228.205 34.098,225.619 34.922 M279.400 69.475 C 278.960 69.589,278.267 69.979,277.859 70.340 C 275.990 72.000,276.000 71.862,276.000 95.180 L 276.000 117.200 289.600 117.200 L 303.200 117.200 303.200 94.962 C 303.200 70.889,303.246 71.424,301.053 69.967 C 300.196 69.397,281.354 68.969,279.400 69.475 M364.000 166.101 C 361.832 166.669,360.636 167.737,347.663 180.695 C 331.088 197.251,330.934 197.303,322.800 189.003 C 315.022 181.066,310.489 178.647,303.400 178.647 C 294.855 178.647,293.850 179.348,274.171 199.054 C 254.443 218.811,255.730 218.422,244.888 207.901 C 236.888 200.138,230.927 197.900,223.200 199.757 C 217.494 201.129,215.266 202.735,205.868 212.247 L 199.986 218.200 200.093 227.499 L 200.200 236.798 211.600 225.471 C 227.469 209.703,227.482 209.699,236.370 218.405 C 246.207 228.042,252.607 230.454,261.000 227.686 C 266.440 225.892,266.503 225.838,286.189 206.143 C 303.880 188.443,303.045 188.676,313.209 198.599 C 323.379 208.528,331.763 210.490,341.200 205.148 C 343.803 203.674,370.415 177.419,371.392 175.361 C 373.686 170.526,369.090 164.768,364.000 166.101 M80.507 180.393 C 73.581 182.237,68.403 184.699,64.800 187.864 C 64.250 188.347,63.046 189.340,62.125 190.071 C 58.030 193.320,51.955 202.449,50.460 207.600 C 47.811 216.731,47.683 222.877,49.952 232.000 C 50.696 234.989,53.758 241.600,54.399 241.600 C 54.548 241.600,62.465 236.920,71.992 231.200 C 81.519 225.480,89.513 220.800,89.757 220.801 C 90.001 220.801,96.584 227.191,104.386 235.001 C 112.188 242.810,118.802 249.200,119.085 249.200 C 120.548 249.200,126.622 239.783,128.570 234.493 C 131.504 226.527,131.458 214.011,128.467 206.600 C 123.191 193.526,112.793 184.200,99.600 180.708 C 95.087 179.514,84.470 179.339,80.507 180.393 " stroke="none" fill="#f69b52" fill-rule="evenodd"></path><path id="path1" d="M21.700 0.291 C 20.765 0.376,20.000 0.616,20.000 0.823 C 20.000 1.030,19.460 1.200,18.800 1.200 C 18.140 1.200,17.600 1.380,17.600 1.600 C 17.600 1.820,17.240 2.000,16.800 2.000 C 16.360 2.000,16.000 2.180,16.000 2.400 C 16.000 2.620,15.640 2.800,15.200 2.800 C 14.760 2.800,14.400 2.980,14.400 3.200 C 14.400 3.420,14.130 3.600,13.800 3.600 C 13.470 3.600,13.200 3.780,13.200 4.000 C 13.200 4.220,12.930 4.400,12.600 4.400 C 12.270 4.400,12.000 4.580,12.000 4.800 C 12.000 5.020,11.759 5.200,11.465 5.200 C 11.171 5.200,10.171 6.010,9.243 7.000 C 8.315 7.990,7.425 8.800,7.264 8.800 C 7.104 8.800,6.651 9.345,6.257 10.011 C 5.864 10.677,5.105 11.659,4.571 12.193 C 4.037 12.727,3.600 13.442,3.600 13.782 C 3.600 14.122,3.420 14.400,3.200 14.400 C 2.980 14.400,2.800 14.760,2.800 15.200 C 2.800 15.640,2.620 16.000,2.400 16.000 C 2.180 16.000,2.000 16.360,2.000 16.800 C 2.000 17.240,1.820 17.600,1.600 17.600 C 1.380 17.600,1.200 18.125,1.200 18.767 C 1.200 19.408,0.975 20.008,0.700 20.100 C 0.301 20.233,0.200 47.576,0.200 155.033 L 0.200 289.800 200.000 289.800 L 399.800 289.800 399.800 155.033 C 399.800 47.576,399.699 20.233,399.300 20.100 C 399.025 20.008,398.800 19.408,398.800 18.767 C 398.800 18.125,398.620 17.600,398.400 17.600 C 398.180 17.600,398.000 17.240,398.000 16.800 C 398.000 16.360,397.820 16.000,397.600 16.000 C 397.380 16.000,397.200 15.640,397.200 15.200 C 397.200 14.760,397.020 14.400,396.800 14.400 C 396.580 14.400,396.400 14.122,396.400 13.782 C 396.400 13.442,395.963 12.727,395.429 12.193 C 394.895 11.659,394.136 10.677,393.743 10.011 C 393.349 9.345,392.896 8.800,392.736 8.800 C 392.575 8.800,391.685 7.990,390.757 7.000 C 389.829 6.010,388.829 5.200,388.535 5.200 C 388.241 5.200,388.000 5.020,388.000 4.800 C 388.000 4.580,387.730 4.400,387.400 4.400 C 387.070 4.400,386.800 4.220,386.800 4.000 C 386.800 3.780,386.530 3.600,386.200 3.600 C 385.870 3.600,385.600 3.420,385.600 3.200 C 385.600 2.980,385.240 2.800,384.800 2.800 C 384.360 2.800,384.000 2.620,384.000 2.400 C 384.000 2.180,383.640 2.000,383.200 2.000 C 382.760 2.000,382.400 1.820,382.400 1.600 C 382.400 1.380,381.875 1.200,381.233 1.200 C 380.592 1.200,379.992 0.975,379.900 0.700 C 379.743 0.229,26.804 -0.174,21.700 0.291 M195.378 20.800 C 196.129 20.800,199.214 23.605,199.732 24.759 C 200.076 25.524,200.253 37.324,200.400 69.231 L 200.600 112.663 201.677 114.075 C 203.568 116.553,204.589 116.800,212.960 116.800 L 220.400 116.800 220.410 79.500 C 220.420 40.811,220.463 39.747,222.121 37.308 C 223.855 34.758,225.754 34.338,234.927 34.477 C 244.154 34.618,245.271 34.915,247.136 37.733 L 248.200 39.341 248.308 78.071 L 248.415 116.800 262.008 116.800 L 275.600 116.800 275.600 95.285 L 275.600 73.770 276.500 71.985 C 277.940 69.129,278.411 69.016,289.400 68.890 C 304.738 68.714,303.368 66.216,303.513 94.629 L 303.626 116.800 317.413 116.800 L 331.200 116.800 331.200 104.586 C 331.200 88.284,329.997 89.600,344.899 89.600 C 359.661 89.600,358.556 88.397,358.726 104.645 L 358.852 116.689 363.199 116.895 C 369.047 117.172,371.045 118.399,372.387 122.534 C 373.527 126.049,370.778 130.310,366.823 131.158 C 364.104 131.741,208.719 131.771,204.600 131.189 C 195.766 129.941,188.815 123.838,186.617 115.399 C 185.532 111.235,185.701 26.870,186.799 24.602 C 188.106 21.903,191.048 20.220,193.750 20.627 C 194.383 20.722,195.115 20.800,195.378 20.800 M94.930 22.299 C 96.581 23.358,98.304 24.794,102.206 28.365 C 104.525 30.487,108.387 33.946,119.000 43.405 C 123.180 47.131,126.800 50.364,127.044 50.590 C 128.457 51.895,131.428 54.553,138.200 60.572 C 151.432 72.333,151.600 72.528,151.600 76.087 C 151.600 79.832,148.591 82.800,144.796 82.800 C 142.517 82.800,141.451 82.148,136.318 77.616 C 133.283 74.935,131.722 73.799,131.516 74.122 C 131.349 74.385,131.204 91.610,131.193 112.400 C 131.177 145.484,131.099 150.300,130.570 151.000 C 129.635 152.237,50.670 152.471,49.151 151.241 L 48.200 150.471 48.094 112.035 C 48.036 90.896,47.882 73.600,47.752 73.600 C 47.622 73.600,45.757 75.199,43.607 77.154 C 37.015 83.149,34.597 83.960,30.804 81.450 C 26.802 78.802,26.994 72.431,31.164 69.510 C 31.985 68.935,38.226 63.355,40.300 61.342 L 41.600 60.080 41.600 51.600 C 41.600 42.032,41.823 41.047,44.363 39.391 C 49.088 36.309,53.907 38.689,55.200 44.742 L 55.800 47.551 57.230 46.275 C 63.774 40.441,76.965 28.605,78.767 26.951 C 84.664 21.538,86.339 20.710,90.730 21.039 C 92.564 21.176,93.719 21.523,94.930 22.299 M196.630 159.396 C 197.565 159.945,198.751 161.070,199.265 161.896 L 200.200 163.400 200.313 190.348 L 200.427 217.297 207.913 209.948 C 217.349 200.687,220.073 199.200,227.600 199.200 C 234.584 199.200,238.122 200.966,245.508 208.139 C 255.806 218.139,254.165 218.710,275.200 197.808 C 294.350 178.779,295.693 177.904,304.806 178.511 C 311.650 178.967,314.439 180.552,322.501 188.566 C 331.109 197.123,330.938 197.180,348.390 179.804 C 363.481 164.779,363.991 164.433,368.246 166.365 C 372.042 168.089,373.375 172.665,371.111 176.202 C 370.548 177.081,363.993 183.830,356.544 191.200 C 340.308 207.264,339.917 207.525,331.600 207.893 C 324.441 208.209,320.821 206.419,312.870 198.631 C 306.861 192.746,306.177 192.286,303.445 192.286 C 300.440 192.286,300.650 192.109,283.200 209.393 C 266.153 226.279,265.374 226.909,259.963 228.184 C 251.758 230.118,246.112 228.029,237.869 220.011 C 227.191 209.625,227.831 209.479,211.265 226.103 L 200.329 237.076 200.465 243.638 C 200.613 250.837,201.008 252.163,203.507 253.859 C 204.560 254.573,207.593 254.607,286.263 254.800 L 367.926 255.000 369.447 256.231 C 373.553 259.555,373.652 264.829,369.664 267.880 L 368.200 269.000 287.600 269.111 C 239.944 269.177,205.730 269.071,203.893 268.852 C 196.479 267.969,190.045 262.786,187.195 255.400 C 185.467 250.924,185.277 164.364,186.989 161.835 C 189.179 158.599,193.434 157.523,196.630 159.396 M98.210 180.225 C 106.336 182.082,117.150 188.136,119.709 192.263 C 119.879 192.536,120.239 192.994,120.511 193.280 C 144.042 218.090,126.234 260.341,91.600 261.871 C 70.624 262.798,53.988 249.576,48.852 227.894 C 47.434 221.911,48.733 211.025,51.643 204.504 C 52.059 203.572,52.400 202.714,52.400 202.597 C 52.400 202.481,53.084 201.260,53.919 199.885 C 63.325 184.403,81.391 176.383,98.210 180.225 M10.600 339.104 C 11.040 339.530,12.120 340.295,13.000 340.804 C 15.091 342.012,14.349 341.285,11.800 339.628 C 10.700 338.913,10.160 338.677,10.600 339.104 M144.480 345.280 C 143.793 345.967,143.793 371.233,144.480 371.920 C 145.178 372.618,254.822 372.618,255.520 371.920 C 255.873 371.567,256.000 368.053,256.000 358.600 C 256.000 349.147,255.873 345.633,255.520 345.280 C 254.822 344.582,145.178 344.582,144.480 345.280 M306.448 379.800 C 306.804 380.240,307.195 380.870,307.316 381.200 C 307.503 381.709,307.542 381.704,307.568 381.162 C 307.586 380.811,307.195 380.181,306.700 379.762 C 305.808 379.006,305.806 379.007,306.448 379.800 " stroke="none" fill="#3b344c" fill-rule="evenodd"></path><path id="path2" d="M190.200 21.671 C 188.090 22.850,186.867 24.771,186.603 27.318 C 186.058 32.598,186.582 114.499,187.171 116.000 C 190.059 123.363,194.062 127.474,200.716 129.910 C 202.477 130.555,207.991 130.600,285.231 130.600 L 367.862 130.600 369.275 129.523 C 374.035 125.892,372.350 119.116,366.323 117.655 C 364.952 117.323,342.894 117.200,284.570 117.200 L 204.694 117.200 203.344 116.365 C 202.601 115.906,201.545 114.765,200.996 113.830 L 200.000 112.130 200.000 69.925 C 200.000 28.116,199.960 26.714,198.706 24.113 C 197.568 21.751,192.607 20.327,190.200 21.671 M190.369 159.659 C 189.338 160.154,188.114 161.164,187.569 161.969 L 186.600 163.400 186.600 207.600 C 186.600 255.178,186.512 253.089,188.694 257.400 C 190.860 261.681,194.007 264.732,198.267 266.682 C 203.138 268.912,198.103 268.790,285.574 268.795 L 366.547 268.800 368.271 267.966 C 372.837 265.755,373.257 259.235,369.009 256.500 L 367.611 255.600 287.300 255.600 C 207.985 255.600,206.962 255.590,204.800 254.800 C 203.596 254.360,202.560 254.000,202.497 254.000 C 202.434 254.000,201.846 253.155,201.191 252.122 L 200.000 250.243 200.000 207.781 C 200.000 176.771,199.876 164.953,199.539 163.960 C 198.115 159.763,194.086 157.873,190.369 159.659 " stroke="none" fill="#b39bcb" fill-rule="evenodd"></path><path id="path3" d="M191.372 20.761 C 189.517 21.227,187.690 22.761,186.799 24.602 C 185.701 26.870,185.532 111.235,186.617 115.399 C 188.815 123.838,195.766 129.941,204.600 131.189 C 208.719 131.771,364.104 131.741,366.823 131.158 C 370.778 130.310,373.527 126.049,372.387 122.534 C 371.043 118.394,369.049 117.172,363.179 116.894 L 358.812 116.687 358.700 105.244 L 358.587 93.800 358.494 105.500 L 358.400 117.200 361.423 117.200 C 371.178 117.200,375.839 124.516,369.275 129.523 L 367.862 130.600 285.231 130.600 C 207.991 130.600,202.477 130.555,200.716 129.910 C 194.062 127.474,190.059 123.363,187.171 116.000 C 186.582 114.499,186.058 32.598,186.603 27.318 C 187.255 21.006,196.082 18.669,198.706 24.113 C 199.960 26.714,200.000 28.116,200.000 69.925 L 200.000 112.130 200.996 113.830 C 202.856 117.003,203.543 117.200,212.747 117.200 L 220.800 117.200 220.702 79.300 L 220.604 41.400 220.500 79.100 L 220.396 116.800 212.958 116.800 C 204.589 116.800,203.568 116.553,201.677 114.075 L 200.600 112.663 200.400 69.231 C 200.253 37.324,200.076 25.524,199.732 24.759 C 199.214 23.605,196.129 20.800,195.378 20.800 C 195.115 20.800,194.383 20.722,193.750 20.627 C 193.118 20.531,192.047 20.592,191.372 20.761 M88.700 21.082 C 89.195 21.178,90.005 21.178,90.500 21.082 C 90.995 20.987,90.590 20.909,89.600 20.909 C 88.610 20.909,88.205 20.987,88.700 21.082 M96.400 23.325 C 96.400 23.394,96.985 23.979,97.700 24.625 L 99.000 25.800 97.825 24.500 C 96.730 23.288,96.400 23.016,96.400 23.325 M79.781 26.100 L 78.200 27.800 79.900 26.219 C 81.481 24.748,81.784 24.400,81.481 24.400 C 81.416 24.400,80.651 25.165,79.781 26.100 M101.000 27.600 C 101.859 28.480,102.652 29.200,102.762 29.200 C 102.872 29.200,102.259 28.480,101.400 27.600 C 100.541 26.720,99.748 26.000,99.638 26.000 C 99.528 26.000,100.141 26.720,101.000 27.600 M72.575 32.500 L 71.400 33.800 72.700 32.625 C 73.415 31.979,74.000 31.394,74.000 31.325 C 74.000 31.016,73.670 31.288,72.575 32.500 M68.175 36.500 L 67.000 37.800 68.300 36.625 C 69.512 35.530,69.784 35.200,69.475 35.200 C 69.406 35.200,68.821 35.785,68.175 36.500 M111.600 36.925 C 111.600 36.994,112.185 37.579,112.900 38.225 L 114.200 39.400 113.025 38.100 C 111.930 36.888,111.600 36.616,111.600 36.925 M47.700 38.276 C 48.085 38.376,48.715 38.376,49.100 38.276 C 49.485 38.175,49.170 38.093,48.400 38.093 C 47.630 38.093,47.315 38.175,47.700 38.276 M64.575 39.700 L 63.400 41.000 64.700 39.825 C 65.415 39.179,66.000 38.594,66.000 38.525 C 66.000 38.216,65.670 38.488,64.575 39.700 M42.784 40.823 C 42.305 41.496,41.979 42.113,42.061 42.194 C 42.143 42.276,42.614 41.726,43.108 40.971 C 44.223 39.271,43.971 39.156,42.784 40.823 M115.200 40.125 C 115.200 40.194,115.785 40.779,116.500 41.425 L 117.800 42.600 116.625 41.300 C 115.530 40.088,115.200 39.816,115.200 40.125 M119.200 43.725 C 119.200 43.794,119.785 44.379,120.500 45.025 L 121.800 46.200 120.625 44.900 C 119.530 43.688,119.200 43.416,119.200 43.725 M123.600 47.800 C 124.346 48.570,125.047 49.200,125.157 49.200 C 125.267 49.200,124.746 48.570,124.000 47.800 C 123.254 47.030,122.553 46.400,122.443 46.400 C 122.333 46.400,122.854 47.030,123.600 47.800 M127.200 50.925 C 127.200 50.994,127.785 51.579,128.500 52.225 L 129.800 53.400 128.625 52.100 C 127.530 50.888,127.200 50.616,127.200 50.925 M139.200 61.800 C 139.946 62.570,140.647 63.200,140.757 63.200 C 140.867 63.200,140.346 62.570,139.600 61.800 C 138.854 61.030,138.153 60.400,138.043 60.400 C 137.933 60.400,138.454 61.030,139.200 61.800 M37.775 63.700 L 36.600 65.000 37.900 63.825 C 39.112 62.730,39.384 62.400,39.075 62.400 C 39.006 62.400,38.421 62.985,37.775 63.700 M143.200 65.400 C 143.946 66.170,144.647 66.800,144.757 66.800 C 144.867 66.800,144.346 66.170,143.600 65.400 C 142.854 64.630,142.153 64.000,142.043 64.000 C 141.933 64.000,142.454 64.630,143.200 65.400 M33.375 67.700 L 32.200 69.000 33.500 67.825 C 34.215 67.179,34.800 66.594,34.800 66.525 C 34.800 66.216,34.470 66.488,33.375 67.700 M282.200 69.067 C 286.672 69.333,300.330 69.381,299.689 69.128 C 299.310 68.979,294.770 68.877,289.600 68.902 C 284.430 68.927,281.100 69.002,282.200 69.067 M47.900 97.900 C 47.956 111.485,48.048 128.720,48.106 136.200 C 48.164 143.680,48.253 132.565,48.305 111.500 C 48.357 90.435,48.265 73.200,48.100 73.200 C 47.935 73.200,47.845 84.315,47.900 97.900 M131.232 73.900 C 131.253 74.364,131.334 74.422,131.475 74.071 C 131.632 73.677,131.956 73.779,132.743 74.471 L 133.800 75.400 132.830 74.300 C 131.713 73.033,131.187 72.901,131.232 73.900 M275.600 95.195 L 275.600 116.789 261.900 116.900 L 248.200 117.011 262.100 117.105 L 276.000 117.200 276.000 95.400 C 276.000 83.410,275.910 73.600,275.800 73.600 C 275.690 73.600,275.600 83.318,275.600 95.195 M303.296 95.300 L 303.200 117.200 317.300 117.105 L 331.400 117.011 317.503 116.900 L 303.607 116.790 303.500 95.095 L 303.393 73.400 303.296 95.300 M44.975 75.700 L 43.800 77.000 45.100 75.825 C 46.312 74.730,46.584 74.400,46.275 74.400 C 46.206 74.400,45.621 74.985,44.975 75.700 M135.600 77.000 C 136.346 77.770,137.047 78.400,137.157 78.400 C 137.267 78.400,136.746 77.770,136.000 77.000 C 135.254 76.230,134.553 75.600,134.443 75.600 C 134.333 75.600,134.854 76.230,135.600 77.000 M40.975 79.300 L 39.800 80.600 41.100 79.425 C 42.312 78.330,42.584 78.000,42.275 78.000 C 42.206 78.000,41.621 78.585,40.975 79.300 M28.764 79.533 C 28.980 79.936,29.471 80.521,29.855 80.833 C 30.287 81.184,30.190 80.904,29.601 80.100 C 28.551 78.665,28.157 78.398,28.764 79.533 M35.600 82.400 C 34.776 82.664,34.741 82.726,35.400 82.754 C 35.840 82.773,36.470 82.613,36.800 82.400 C 37.501 81.947,37.014 81.947,35.600 82.400 M130.281 150.639 C 129.886 151.168,129.708 151.600,129.885 151.600 C 130.234 151.600,131.338 150.001,131.128 149.800 C 131.057 149.733,130.677 150.111,130.281 150.639 M69.700 151.900 C 80.645 151.959,98.555 151.959,109.500 151.900 C 120.445 151.841,111.490 151.792,89.600 151.792 C 67.710 151.792,58.755 151.841,69.700 151.900 M189.567 159.535 C 185.896 161.863,186.227 158.165,186.000 199.400 C 185.699 254.261,185.696 254.211,189.640 260.048 C 192.552 264.357,198.368 268.245,202.481 268.633 L 204.200 268.795 202.360 268.254 C 195.885 266.351,191.435 262.816,188.694 257.400 C 186.512 253.089,186.600 255.178,186.600 207.600 L 186.600 163.400 187.572 161.965 C 190.408 157.775,196.809 158.181,199.051 162.692 C 199.757 164.114,199.806 165.729,199.908 190.900 C 199.968 205.585,200.152 217.600,200.318 217.600 C 200.484 217.600,201.966 216.205,203.610 214.500 L 206.600 211.400 203.514 214.377 L 200.427 217.353 200.314 190.377 L 200.200 163.400 199.265 161.896 C 197.136 158.472,192.878 157.435,189.567 159.535 M368.600 166.657 C 370.637 168.464,371.387 168.991,370.602 168.063 C 370.166 167.548,369.447 166.941,369.004 166.714 C 368.562 166.487,368.380 166.462,368.600 166.657 M357.398 190.100 L 344.200 203.400 357.500 190.202 C 369.861 177.937,370.980 176.800,370.698 176.800 C 370.641 176.800,364.656 182.785,357.398 190.100 M88.307 179.490 C 89.026 179.579,90.106 179.577,90.707 179.486 C 91.308 179.395,90.720 179.322,89.400 179.324 C 88.080 179.326,87.588 179.401,88.307 179.490 M312.200 198.000 C 314.612 200.420,316.676 202.400,316.786 202.400 C 316.896 202.400,315.012 200.420,312.600 198.000 C 310.188 195.580,308.124 193.600,308.014 193.600 C 307.904 193.600,309.788 195.580,312.200 198.000 M222.800 199.618 C 222.362 199.915,222.524 199.952,223.400 199.756 C 224.871 199.427,225.190 199.198,224.167 199.206 C 223.745 199.209,223.130 199.395,222.800 199.618 M230.433 199.344 C 230.525 199.423,231.140 199.608,231.800 199.756 C 232.676 199.952,232.838 199.915,232.400 199.618 C 231.860 199.253,230.032 198.998,230.433 199.344 M287.789 204.500 L 285.000 207.400 287.900 204.611 C 289.495 203.077,290.800 201.772,290.800 201.711 C 290.800 201.417,290.380 201.806,287.789 204.500 M342.600 204.250 C 341.881 204.862,341.734 205.105,342.233 204.857 C 342.966 204.493,344.341 203.176,343.949 203.214 C 343.867 203.222,343.260 203.688,342.600 204.250 M212.575 205.300 L 211.400 206.600 212.700 205.425 C 213.415 204.779,214.000 204.194,214.000 204.125 C 214.000 203.816,213.670 204.088,212.575 205.300 M245.600 208.600 C 248.123 211.130,250.277 213.200,250.387 213.200 C 250.497 213.200,248.523 211.130,246.000 208.600 C 243.477 206.070,241.323 204.000,241.213 204.000 C 241.103 204.000,243.077 206.070,245.600 208.600 M327.505 207.883 C 328.002 207.979,328.722 207.975,329.105 207.875 C 329.487 207.775,329.080 207.696,328.200 207.701 C 327.320 207.705,327.007 207.787,327.505 207.883 M333.105 207.883 C 333.602 207.979,334.322 207.975,334.705 207.875 C 335.087 207.775,334.680 207.696,333.800 207.701 C 332.920 207.705,332.607 207.787,333.105 207.883 M220.400 216.600 C 219.428 217.590,218.723 218.400,218.833 218.400 C 218.943 218.400,219.828 217.590,220.800 216.600 C 221.772 215.610,222.477 214.800,222.367 214.800 C 222.257 214.800,221.372 215.610,220.400 216.600 M130.914 218.600 C 130.917 219.700,130.995 220.103,131.087 219.495 C 131.179 218.886,131.177 217.986,131.082 217.495 C 130.987 217.003,130.911 217.500,130.914 218.600 M214.192 222.900 L 210.200 227.000 214.300 223.008 C 216.555 220.812,218.400 218.967,218.400 218.908 C 218.400 218.618,217.901 219.092,214.192 222.900 M270.788 221.500 L 268.200 224.200 270.900 221.612 C 272.385 220.188,273.600 218.973,273.600 218.912 C 273.600 218.617,273.193 218.992,270.788 221.500 M94.592 225.800 C 97.342 228.550,99.726 230.800,99.890 230.800 C 100.054 230.800,97.943 228.550,95.200 225.800 C 92.457 223.050,90.073 220.800,89.902 220.800 C 89.732 220.800,91.842 223.050,94.592 225.800 M130.914 223.000 C 130.917 224.100,130.995 224.503,131.087 223.895 C 131.179 223.286,131.177 222.386,131.082 221.895 C 130.987 221.403,130.911 221.900,130.914 223.000 M208.000 229.000 C 207.028 229.990,206.323 230.800,206.433 230.800 C 206.543 230.800,207.428 229.990,208.400 229.000 C 209.372 228.010,210.077 227.200,209.967 227.200 C 209.857 227.200,208.972 228.010,208.000 229.000 M108.052 239.313 C 112.533 243.776,116.765 248.080,117.456 248.878 L 118.713 250.328 120.056 248.868 C 120.795 248.065,120.938 247.811,120.374 248.304 C 118.878 249.611,119.310 249.936,109.587 240.202 C 104.644 235.253,100.443 231.203,100.252 231.202 C 100.061 231.201,103.571 234.851,108.052 239.313 M202.890 234.109 L 200.000 237.019 200.000 243.631 L 200.000 250.243 201.191 252.122 C 201.846 253.155,202.434 254.000,202.497 254.000 C 202.560 254.000,203.596 254.360,204.800 254.800 C 206.962 255.590,207.985 255.600,287.300 255.600 L 367.611 255.600 369.009 256.500 C 373.243 259.226,372.844 265.709,368.304 267.956 C 366.798 268.701,366.722 268.799,367.652 268.800 C 369.231 268.800,371.736 266.172,372.393 263.826 C 373.193 260.967,371.929 257.945,369.084 255.916 L 367.800 255.000 286.200 254.800 C 207.591 254.607,204.560 254.573,203.507 253.859 C 201.009 252.164,200.613 250.836,200.465 243.645 L 200.329 237.090 203.255 234.145 C 204.864 232.525,206.090 231.200,205.980 231.200 C 205.870 231.200,204.479 232.509,202.890 234.109 M245.532 269.100 C 267.824 269.157,304.184 269.157,326.332 269.100 C 348.479 269.043,330.240 268.996,285.800 268.996 C 241.360 268.996,223.239 269.043,245.532 269.100 M0.074 306.880 C 0.170 319.872,0.320 324.080,0.700 324.460 C 0.975 324.735,1.200 325.374,1.200 325.880 C 1.200 326.386,1.380 326.800,1.600 326.800 C 1.820 326.800,2.000 327.160,2.000 327.600 C 2.000 328.040,2.180 328.400,2.400 328.400 C 2.620 328.400,2.801 328.805,2.802 329.300 C 2.803 329.795,3.343 330.775,4.002 331.478 C 4.661 332.181,5.200 332.922,5.200 333.125 C 5.200 334.682,13.982 341.661,17.400 342.820 C 18.280 343.119,19.171 343.507,19.380 343.682 C 19.589 343.857,20.174 344.000,20.680 344.000 C 21.186 344.000,21.600 344.180,21.600 344.400 C 21.600 344.622,22.667 344.800,24.000 344.800 C 25.333 344.800,26.400 344.978,26.400 345.200 C 26.400 345.465,46.325 345.600,85.376 345.600 C 124.263 345.600,144.437 345.464,144.600 345.200 C 144.942 344.647,255.058 344.647,255.400 345.200 C 255.563 345.464,275.730 345.600,314.600 345.600 C 353.470 345.600,373.637 345.464,373.800 345.200 C 373.936 344.980,375.027 344.800,376.224 344.800 C 377.421 344.800,378.400 344.620,378.400 344.400 C 378.400 344.180,378.940 344.000,379.600 344.000 C 380.260 344.000,380.800 343.820,380.800 343.600 C 380.800 343.380,381.072 343.200,381.405 343.200 C 382.051 343.200,382.686 342.929,384.600 341.836 C 385.260 341.459,386.115 341.051,386.500 340.929 C 386.885 340.807,387.200 340.548,387.200 340.353 C 387.200 340.159,387.451 340.000,387.758 340.000 C 388.390 340.000,394.800 333.801,394.800 333.189 C 394.800 332.971,395.340 332.228,396.000 331.537 C 396.660 330.846,397.200 329.858,397.200 329.341 C 397.200 328.823,397.380 328.400,397.600 328.400 C 397.820 328.400,398.000 328.128,398.000 327.795 C 398.000 327.230,398.269 326.599,399.362 324.600 C 399.654 324.067,399.842 318.120,399.926 306.800 L 400.053 289.800 200.000 289.800 L -0.053 289.800 0.074 306.880 M107.600 372.000 C 107.600 372.220,106.801 372.400,105.824 372.400 C 104.847 372.400,103.936 372.580,103.800 372.800 C 103.664 373.020,103.128 373.200,102.610 373.200 C 102.091 373.200,101.604 373.388,101.527 373.618 C 101.451 373.848,100.998 374.065,100.522 374.101 C 100.045 374.137,99.744 374.309,99.851 374.483 C 99.959 374.657,99.767 374.800,99.424 374.800 C 99.081 374.800,98.800 374.980,98.800 375.200 C 98.800 375.420,98.530 375.600,98.200 375.600 C 97.870 375.600,97.600 375.780,97.600 376.000 C 97.600 376.220,97.340 376.400,97.023 376.400 C 96.705 376.400,96.194 376.759,95.887 377.197 C 95.580 377.636,95.209 377.876,95.064 377.731 C 94.919 377.586,94.800 377.722,94.800 378.035 C 94.800 378.347,94.259 379.113,93.599 379.736 C 92.938 380.360,92.280 381.349,92.137 381.935 C 91.994 382.521,91.770 383.090,91.638 383.200 C 91.056 383.689,90.400 385.275,90.400 386.195 C 90.400 386.748,90.220 387.200,90.000 387.200 C 89.780 387.200,89.600 388.179,89.600 389.376 C 89.600 390.573,89.420 391.664,89.200 391.800 C 88.977 391.938,88.800 393.804,88.800 396.024 L 88.800 400.000 200.000 400.000 L 311.200 400.000 311.200 396.024 C 311.200 393.804,311.023 391.938,310.800 391.800 C 310.580 391.664,310.400 390.573,310.400 389.376 C 310.400 388.179,310.220 387.200,310.000 387.200 C 309.780 387.200,309.600 386.755,309.600 386.211 C 309.600 385.106,308.019 381.600,307.520 381.600 C 307.344 381.600,307.200 381.353,307.200 381.050 C 307.200 380.285,302.573 375.600,301.817 375.600 C 301.478 375.600,301.200 375.420,301.200 375.200 C 301.200 374.980,300.975 374.796,300.700 374.791 C 300.425 374.786,299.750 374.430,299.200 374.000 C 298.650 373.570,297.705 373.214,297.100 373.209 C 296.495 373.204,296.000 373.020,296.000 372.800 C 296.000 372.580,295.201 372.400,294.224 372.400 C 293.247 372.400,292.336 372.220,292.200 372.000 C 292.041 371.743,285.470 371.600,273.800 371.600 C 262.130 371.600,255.559 371.743,255.400 372.000 C 255.058 372.553,144.942 372.553,144.600 372.000 C 144.441 371.743,137.796 371.600,125.976 371.600 C 113.992 371.600,107.600 371.739,107.600 372.000 " stroke="none" fill="#546383" fill-rule="evenodd"></path><path id="path4" d="M334.131 89.878 C 333.653 89.971,332.798 90.511,332.231 91.078 L 331.200 92.109 331.200 104.655 L 331.200 117.200 344.800 117.200 L 358.400 117.200 358.400 104.655 L 358.400 92.109 357.394 91.103 C 356.841 90.550,355.829 89.986,355.144 89.849 C 353.788 89.578,335.543 89.603,334.131 89.878 M71.987 231.203 C 62.458 236.925,54.575 241.692,54.470 241.797 C 54.132 242.134,57.087 246.250,59.582 248.917 C 72.458 262.681,93.072 265.896,109.800 256.749 C 113.265 254.854,118.400 250.855,118.400 250.051 C 118.400 249.712,89.793 220.800,89.457 220.800 C 89.379 220.800,81.517 225.481,71.987 231.203 " stroke="none" fill="#24ab5b" fill-rule="evenodd"></path></g></svg>